<?xml version="1.0" encoding="UTF-8"?>
<svg id="Layer_1" data-name="Layer 1" xmlns="http://www.w3.org/2000/svg" viewBox="0 0 110.52 189.57">
  <defs>
    <style>
      .cls-1 {
        fill: #fff;
      }

      .cls-2 {
        fill: #333;
      }

      .cls-3 {
        fill: #799eff;
      }
    </style>
  </defs>
  <g>
    <rect class="cls-2" x="6.56" y="124.21" width="5.72" height="5.72"/>
    <rect class="cls-2" x="14.73" y="124.21" width="5.72" height="5.72"/>
    <rect class="cls-2" x="30.49" y="124.21" width="5.72" height="5.72"/>
    <rect class="cls-2" x="38.11" y="124.21" width="5.72" height="5.72"/>
    <rect class="cls-2" x="48.21" y="158.64" width="5.72" height="5.72"/>
    <rect class="cls-2" x="56.38" y="158.64" width="5.72" height="5.72"/>
    <rect class="cls-2" x="70.5" y="124.21" width="5.72" height="5.72"/>
    <rect class="cls-2" x="78.13" y="124.21" width="5.72" height="5.72"/>
    <path class="cls-2" d="M101.07,134.25h-10.02v5.2h9.61c2.27,.6,3.34,1.89,3.21,3.87v7.3h-17.56v-16.6h-8.3c-5.41-.04-8.9,1.93-10.48,5.91-1.27,4.16-.27,7.72,2.99,10.7h-8.22v-16.6h-6.37v16.6h-9.64v-16.6h-8.3c-5.41-.04-8.9,1.93-10.48,5.91-1.27,4.16-.27,7.72,2.99,10.7h-8.63v-16.71c-3.59-.02-6.64,.52-9.13,1.61-2.5,1.09-4.55,2.51-6.17,4.27-4.21,4.61-6.41,9.95-6.59,16.01H5.99l.73-3.51c1.78-5.44,4.71-9.2,8.79-11.27v14.78H110.52v-13.91c-.96-4.83-4.11-7.37-9.45-7.62Zm-61.06,16.36c-3.58-1.65-5.77-4.12-6.59-7.4,.22-2.52,2.17-3.65,5.85-3.38h.73v10.78Zm40.02,0c-3.58-1.65-5.77-4.12-6.59-7.4,.22-2.52,2.17-3.65,5.85-3.38h.74v10.78Z"/>
  </g>
  <path class="cls-3" d="M110.52,42.89v57.32c0,5.69-4.62,10.3-10.3,10.3H0V10.31C0,4.61,4.62,0,10.31,0h57.32c23.69,0,42.89,19.2,42.89,42.89Z"/>
  <path class="cls-1" d="M78.28,42.96v33.29H0v-12.38H62.38v-17.46c.31-4.74-2.26-7.82-7.68-9.25H31.7v-12.45h23.97c12.77,.61,20.3,6.69,22.6,18.24Z"/>
  <g>
    <path class="cls-2" d="M13.72,188.89l-2.2,.18v-8.81H2.2v8.63H0v-18.31l2.2-.18v8.03H11.53v-7.85h2.2v18.31Z"/>
    <path class="cls-2" d="M33.19,189.07l-2.02-5.44h-7.74l-2,5.44-2.28-.36,6.8-18.13h2.72l6.79,18.13-2.27,.36Zm-5.88-15.87l-3.15,8.53h6.32l-3.17-8.53Z"/>
    <path class="cls-2" d="M58.31,179.38v.15c0,1.41-.23,2.64-.68,3.69-.49,1.08-1.29,2.11-2.4,3.08l1.98,2.07-1.72,1.2-1.72-1.85c-1.25,.9-2.65,1.35-4.19,1.35-2.35,0-4.38-.95-6.09-2.85-1.73-1.88-2.59-4.05-2.59-6.51s.86-4.74,2.57-6.59c1.68-1.81,3.74-2.72,6.19-2.72h.06c2.4,.02,4.43,.9,6.09,2.64,1.63,1.76,2.47,3.87,2.5,6.33Zm-2.22,.28v-.15c0-1.9-.6-3.57-1.8-5.02-1.23-1.49-2.79-2.24-4.66-2.26h-.05c-1.86,0-3.42,.77-4.67,2.31-1.23,1.46-1.84,3.2-1.84,5.22s.66,3.69,1.99,5.21c1.33,1.51,2.85,2.27,4.57,2.27,1.01,0,1.95-.31,2.81-.94l-3.46-3.74,1.81-1.1,3.08,3.36c1.45-1.43,2.19-3.15,2.22-5.16Z"/>
    <path class="cls-2" d="M65.93,188.89h-2.2v-18.31l2.2-.18v18.48Z"/>
    <path class="cls-2" d="M88.77,179.38v.15c0,1.41-.23,2.64-.68,3.69-.49,1.08-1.29,2.11-2.4,3.08l1.98,2.07-1.72,1.2-1.72-1.85c-1.25,.9-2.65,1.35-4.19,1.35-2.35,0-4.38-.95-6.09-2.85-1.73-1.88-2.59-4.05-2.59-6.51s.86-4.74,2.57-6.59c1.68-1.81,3.74-2.72,6.19-2.72h.06c2.4,.02,4.43,.9,6.09,2.64,1.63,1.76,2.47,3.87,2.5,6.33Zm-2.22,.28v-.15c0-1.9-.6-3.57-1.8-5.02-1.23-1.49-2.79-2.24-4.66-2.26h-.05c-1.86,0-3.42,.77-4.67,2.31-1.23,1.46-1.84,3.2-1.84,5.22s.66,3.69,1.99,5.21c1.33,1.51,2.85,2.27,4.57,2.27,1.01,0,1.95-.31,2.81-.94l-3.46-3.74,1.81-1.1,3.08,3.36c1.45-1.43,2.19-3.15,2.22-5.16Z"/>
    <path class="cls-2" d="M108.25,189.07l-2.02-5.44h-7.74l-2,5.44-2.28-.36,6.8-18.13h2.72l6.79,18.13-2.27,.36Zm-5.88-15.87l-3.15,8.53h6.32l-3.17-8.53Z"/>
  </g>
</svg>