<?xml version="1.0" encoding="UTF-8"?>
<svg id="Layer_1" data-name="Layer 1" xmlns="http://www.w3.org/2000/svg" viewBox="0 0 205 67.62">
  <defs>
    <style>
      .cls-1 {
        fill: #fff;
      }

      .cls-2 {
        fill: #333;
      }

      .cls-3 {
        fill: #799eff;
      }
    </style>
  </defs>
  <path class="cls-3" d="M205,26.24V61.32c0,3.48-2.82,6.31-6.31,6.31h-61.32V6.31c0-3.48,2.82-6.31,6.31-6.31h35.07c14.49,0,26.24,11.75,26.24,26.24Z"/>
  <g>
    <rect class="cls-2" x="21.81" y="0" width="8.47" height="8.47"/>
    <rect class="cls-2" x="9.72" y="0" width="8.47" height="8.47"/>
    <rect class="cls-2" x="56.44" y="0" width="8.47" height="8.47"/>
    <rect class="cls-2" x="45.15" y="0" width="8.47" height="8.47"/>
    <rect class="cls-2" x="71.39" y="51" width="8.47" height="8.47"/>
    <rect class="cls-2" x="83.49" y="51" width="8.47" height="8.47"/>
    <rect class="cls-2" x="115.7" y="0" width="8.47" height="8.47"/>
    <rect class="cls-2" x="104.41" y="0" width="8.47" height="8.47"/>
    <path class="cls-2" d="M131.38,39.1h-3.55V14.51h-12.3c-8.01-.05-13.18,2.86-15.52,8.75-1.88,6.15-.4,11.44,4.43,15.84h-12.17V14.51h-9.43v24.59h-14.27V14.51h-12.3c-8.01-.05-13.18,2.86-15.52,8.75-1.88,6.15-.4,11.44,4.43,15.84h-12.78V14.35c-5.32-.03-9.83,.77-13.52,2.38-3.7,1.61-6.74,3.72-9.13,6.33C3.52,29.89,.27,37.79,0,46.76H8.87l1.09-5.2c2.63-8.06,6.97-13.63,13.02-16.69v21.89h114.4v-7.66h-6Zm-72.12,0c-5.29-2.45-8.55-6.1-9.76-10.97,.32-3.74,3.21-5.4,8.67-5h1.09v15.96Zm59.26,0c-5.29-2.45-8.55-6.1-9.76-10.97,.32-3.74,3.21-5.4,8.67-5h1.09v15.96Z"/>
  </g>
  <path class="cls-1" d="M185.28,26.29v20.37h-47.9v-7.57h38.17v-10.68c.19-2.9-1.38-4.78-4.7-5.66h-14.07v-7.61h14.67c7.81,.37,12.42,4.09,13.83,11.16Z"/>
</svg>